<?xml version="1.0" standalone="no"?>
<!DOCTYPE svg PUBLIC "-//W3C//DTD SVG 20010904//EN"
 "http://www.w3.org/TR/2001/REC-SVG-20010904/DTD/svg10.dtd">
<svg version="1.0" xmlns="http://www.w3.org/2000/svg"
 width="100.000000pt" height="100.000000pt" viewBox="0 0 100.000000 100.000000"
 preserveAspectRatio="xMidYMid meet">

<g transform="translate(0.000000,100.000000) scale(0.100000,-0.100000)"
fill="#000000" stroke="none">
<path d="M490 915 c0 -8 -7 -15 -16 -15 -9 0 -14 -6 -11 -12 2 -7 10 -12 16
-10 6 1 11 -7 11 -18 0 -11 5 -20 10 -20 6 0 10 9 10 20 0 11 5 19 11 18 6 -2
14 3 16 10 3 6 -2 12 -11 12 -9 0 -16 7 -16 15 0 8 -4 15 -10 15 -5 0 -10 -7
-10 -15z"/>
<path d="M220 908 c0 -10 -7 -18 -15 -18 -8 0 -15 -7 -15 -15 0 -9 -6 -12 -17
-8 -14 6 -14 2 3 -27 10 -18 32 -46 48 -62 16 -16 25 -32 21 -36 -4 -4 -23 12
-44 34 -39 45 -92 72 -73 38 6 -11 34 -35 63 -54 60 -40 79 -69 32 -48 -15 7
-34 18 -41 25 -18 17 -30 16 -49 -2 -17 -17 -11 -60 9 -68 20 -7 58 11 58 28
0 20 13 19 41 -4 l24 -19 -26 5 c-16 3 -30 -1 -39 -11 -17 -22 -7 -30 20 -16
12 7 31 9 42 7 15 -4 18 -2 12 11 -15 35 -16 83 -1 115 8 17 17 51 21 74 5 35
4 41 -9 37 -9 -4 -15 -1 -15 7 0 10 -3 10 -12 1 -9 -9 -14 -7 -24 6 -13 16
-13 16 -14 0z m15 -60 c-5 -21 -5 -21 6 -4 9 15 13 16 20 5 15 -24 10 -36 -16
-42 -19 -3 -29 1 -36 16 -7 13 -7 17 -1 13 6 -3 13 3 17 14 9 28 18 25 10 -2z
m-66 -137 c8 -5 9 -11 3 -15 -5 -3 -15 1 -22 9 -14 16 -3 20 19 6z"/>
<path d="M341 907 c-6 -8 -15 -38 -21 -68 -6 -34 -18 -61 -31 -72 -26 -21 -23
-26 22 -28 39 -3 70 -25 62 -45 -3 -9 2 -14 17 -14 41 0 89 -37 90 -69 0 -10
-9 -6 -27 11 -34 32 -83 52 -95 40 -12 -12 8 -86 28 -107 9 -9 14 -19 10 -22
-9 -10 -46 29 -61 63 -17 41 -41 54 -82 42 -23 -6 -33 -15 -33 -28 0 -24 18
-26 48 -4 23 16 52 13 52 -6 0 -5 -11 -10 -25 -10 -15 0 -25 -6 -25 -15 0 -21
45 -48 70 -40 11 4 20 2 20 -4 0 -16 -46 -24 -68 -12 -28 15 -29 15 -29 -19 0
-34 1 -34 26 -19 11 8 29 9 47 4 l29 -8 -35 -8 c-54 -12 -81 -59 -34 -59 16 0
24 -5 22 -12 -7 -20 -38 -21 -58 -3 -11 10 -26 15 -36 11 -16 -6 -16 -8 0 -25
27 -30 65 -32 93 -5 12 13 23 29 23 37 0 17 48 63 57 54 3 -4 -1 -15 -11 -26
-19 -21 -40 -87 -31 -100 9 -15 66 6 97 36 27 26 35 22 22 -12 -8 -19 -55 -45
-85 -45 -14 0 -19 -5 -16 -14 9 -22 -26 -46 -66 -46 -42 0 -45 -5 -17 -28 12
-10 24 -39 30 -72 12 -65 32 -90 58 -74 27 17 29 127 3 153 -19 19 -19 19 6
43 25 22 26 22 21 2 -7 -26 8 -54 27 -54 18 0 19 11 3 45 -10 22 -8 29 17 55
15 16 32 27 37 24 5 -4 -3 -20 -19 -37 -26 -28 -27 -30 -5 -24 26 6 26 6 10
-28 -8 -19 -8 -31 0 -50 15 -32 29 -32 44 0 9 21 8 32 -5 60 -9 19 -12 35 -7
35 6 0 10 -4 10 -10 0 -5 8 -10 18 -10 14 1 14 3 -5 19 -13 11 -23 27 -23 37
0 14 7 11 35 -16 31 -30 33 -35 20 -54 -19 -26 -19 -46 0 -46 19 0 34 28 27
54 l-5 21 23 -22 c21 -20 22 -22 6 -44 -21 -30 -22 -132 -2 -148 22 -18 53 3
60 39 3 16 9 44 12 60 3 17 14 36 25 43 29 18 23 27 -18 27 -40 0 -75 24 -66
46 3 9 -2 14 -16 14 -30 0 -77 26 -85 45 -13 34 -5 38 22 12 31 -30 88 -51 97
-36 8 12 -11 79 -30 107 -9 12 -12 22 -7 22 12 0 52 -44 52 -58 0 -6 18 -32
40 -57 43 -50 50 -85 26 -133 -7 -15 -16 -48 -19 -74 -5 -39 -4 -46 8 -42 8 4
15 1 15 -6 0 -9 3 -10 13 -1 10 8 17 7 25 -1 9 -9 12 -9 12 0 0 7 7 12 15 12
8 0 15 7 15 15 0 9 6 12 17 8 14 -6 14 -2 -3 27 -10 18 -32 46 -48 62 -16 16
-25 32 -21 36 4 4 23 -11 44 -34 41 -47 74 -64 69 -37 -2 10 -19 27 -38 40
-55 34 -86 61 -79 67 3 4 23 -5 43 -19 43 -29 52 -30 73 -10 17 17 11 60 -9
68 -20 7 -58 -11 -58 -28 0 -20 -13 -19 -41 4 -21 18 -22 19 -4 15 22 -6 64
20 52 32 -4 4 -18 2 -31 -6 -14 -7 -32 -9 -43 -5 -15 6 -13 9 13 16 35 10 52
37 30 45 -8 3 -26 -2 -40 -11 -26 -17 -56 -15 -56 5 0 5 11 10 25 10 46 0 20
43 -35 58 l-35 9 29 8 c18 5 36 4 47 -4 25 -15 24 -15 24 19 0 34 1 34 -24 19
-20 -13 -71 -4 -71 12 0 6 9 8 20 4 25 -8 70 19 70 40 0 9 -10 15 -25 15 -14
0 -25 5 -25 10 0 20 30 22 56 5 14 -9 33 -14 41 -11 14 6 14 8 -1 25 -27 30
-65 32 -93 5 -12 -13 -23 -29 -23 -37 0 -13 -40 -57 -53 -57 -3 0 2 15 12 33
24 40 35 93 22 101 -14 9 -63 -12 -93 -42 -23 -21 -28 -22 -28 -9 0 24 34 55
67 63 52 11 59 14 45 23 -18 11 16 37 51 39 42 3 50 11 27 30 -12 10 -24 39
-30 72 -12 65 -32 90 -58 74 -24 -16 -29 -117 -7 -151 16 -24 16 -26 -5 -47
l-23 -21 6 23 c8 33 -1 52 -24 52 -22 0 -24 -9 -7 -45 10 -23 9 -29 -20 -58
-26 -26 -32 -28 -32 -13 0 10 10 26 23 37 16 14 18 18 6 19 -8 0 -20 -5 -27
-12 -9 -9 -15 -9 -24 0 -7 7 -19 12 -27 12 -12 -1 -10 -5 7 -19 12 -11 22 -27
22 -37 0 -15 -6 -13 -32 13 -29 29 -30 35 -20 58 17 36 15 45 -8 45 -20 0 -25
-13 -20 -55 2 -19 1 -19 -23 3 -25 23 -25 24 -6 43 14 14 19 33 19 77 0 73
-28 105 -59 69z m29 -105 c0 -14 -39 -46 -47 -39 -3 4 2 16 12 27 19 21 35 26
35 12z m295 -12 c10 -11 15 -23 12 -27 -8 -7 -47 25 -47 39 0 14 16 9 35 -12z
m-242 -174 c23 3 55 -62 38 -79 -19 -19 -64 24 -67 63 -2 19 0 29 4 24 4 -6
15 -10 25 -8z m176 -2 c4 3 7 -7 7 -20 0 -17 -10 -33 -29 -46 -38 -28 -54 -12
-32 33 15 33 15 13 -1 -25 -7 -19 -7 -19 25 0 22 13 28 20 17 22 -18 4 -19 11
-9 38 4 11 8 13 11 6 2 -7 7 -10 11 -8z m-89 -49 c0 -19 -4 -35 -10 -35 -5 0
-10 16 -10 35 0 19 5 35 10 35 6 0 10 -16 10 -35z m-180 -5 c13 -8 13 -10 -2
-10 -9 0 -20 5 -23 10 -8 13 5 13 25 0z m365 0 c-3 -5 -14 -10 -23 -10 -15 0
-15 2 -2 10 20 13 33 13 25 0z m-235 -60 c0 -5 -18 -10 -41 -10 -24 0 -38 4
-34 10 3 6 22 10 41 10 19 0 34 -4 34 -10z m155 0 c4 -6 -10 -10 -34 -10 -23
0 -41 5 -41 10 0 6 15 10 34 10 19 0 38 -4 41 -10z m-150 -39 c3 -6 -1 -25
-10 -43 -15 -32 -15 -11 0 26 7 16 6 17 -10 8 -12 -6 -19 -22 -20 -39 0 -15
-4 -28 -10 -28 -5 0 -17 -4 -25 -10 -13 -8 -13 -7 -1 8 7 9 10 17 6 17 -4 0
-2 7 5 15 7 8 9 15 4 15 -10 0 37 39 48 40 4 0 9 -4 13 -9z m45 -27 c0 -21 -4
-33 -10 -29 -17 10 -11 65 7 65 2 0 3 -16 3 -36z m70 17 c28 -22 36 -70 11
-66 -10 1 -16 12 -16 29 -1 17 -9 32 -20 38 -16 9 -17 8 -10 -8 15 -37 15 -58
0 -26 -24 51 -8 66 35 33z m-250 -11 c-20 -13 -33 -13 -25 0 3 6 14 10 23 10
15 0 15 -2 2 -10z m365 0 c8 -13 -5 -13 -25 0 -13 8 -13 10 2 10 9 0 20 -4 23
-10z m162 -147 c0 -8 -7 -11 -14 -8 -8 3 -17 5 -19 5 -3 0 -3 4 0 8 8 14 33
10 33 -5z m-347 -38 c0 -8 -4 -15 -10 -15 -5 0 -10 7 -10 15 0 8 5 15 10 15 6
0 10 -7 10 -15z m-150 -52 c0 -14 -2 -14 -20 2 -11 10 -20 22 -20 27 0 5 9 4
20 -2 11 -6 20 -18 20 -27z m320 29 c0 -14 -39 -46 -47 -39 -3 4 2 16 12 27
19 21 35 26 35 12z m110 -51 c8 -17 7 -19 -9 -16 -15 3 -18 -1 -14 -18 4 -18
3 -19 -6 -7 -6 8 -11 11 -11 7 0 -4 -6 -2 -14 5 -18 17 -10 36 17 41 12 2 23
5 24 6 1 0 7 -8 13 -18z"/>
<path d="M430 598 c0 -10 -8 -18 -17 -18 -13 0 -10 -6 12 -20 16 -10 31 -18
32 -16 2 2 -3 18 -11 37 -9 19 -15 26 -16 17z"/>
<path d="M730 901 c0 -7 -6 -11 -14 -8 -18 7 -10 -78 11 -112 15 -23 14 -78
-1 -113 -6 -13 -3 -15 13 -11 12 3 28 0 36 -7 8 -6 19 -9 25 -5 16 10 -8 35
-33 35 -20 0 -20 0 -1 15 25 19 34 19 34 0 0 -17 38 -35 58 -28 20 8 26 51 9
68 -21 20 -30 19 -73 -10 -20 -14 -40 -23 -43 -19 -7 6 24 33 79 67 19 13 36
30 38 40 5 27 -27 10 -71 -36 -20 -22 -39 -38 -42 -35 -3 3 7 19 22 35 15 17
37 45 47 63 17 29 17 33 3 27 -11 -4 -17 -1 -17 8 0 8 -7 15 -15 15 -8 0 -15
5 -15 11 0 8 -4 8 -13 0 -10 -8 -17 -7 -25 1 -9 9 -12 9 -12 -1z m64 -64 c5 4
4 -2 -3 -14 -8 -15 -17 -20 -33 -15 -23 5 -38 19 -38 35 0 5 5 5 10 2 6 -3 10
0 10 7 1 8 7 5 16 -7 16 -19 16 -19 10 5 l-7 25 14 -23 c7 -12 17 -19 21 -15z
m56 -132 c-7 -8 -17 -12 -22 -9 -6 4 -5 10 3 15 22 14 33 10 19 -6z"/>
<path d="M426 844 c-17 -16 -12 -40 9 -48 19 -7 46 20 39 39 -8 21 -32 26 -48
9z"/>
<path d="M536 844 c-17 -16 -12 -40 9 -48 19 -7 46 20 39 39 -8 21 -32 26 -48
9z"/>
<path d="M478 785 c-12 -27 2 -75 22 -75 20 0 34 48 22 75 -6 14 -16 25 -22
25 -6 0 -16 -11 -22 -25z m32 -40 c0 -8 -4 -15 -10 -15 -5 0 -10 7 -10 15 0 8
5 15 10 15 6 0 10 -7 10 -15z"/>
<path d="M290 704 c-11 -12 -10 -18 3 -32 16 -15 18 -15 34 0 13 14 14 20 3
32 -7 9 -16 16 -20 16 -4 0 -13 -7 -20 -16z"/>
<path d="M673 713 c-18 -7 -16 -28 3 -43 12 -11 18 -11 30 2 27 26 3 56 -33
41z"/>
<path d="M140 642 c0 -7 -4 -11 -9 -8 -17 11 -38 -5 -37 -27 1 -12 -3 -25 -9
-29 -6 -5 -2 -8 8 -8 10 0 16 -3 14 -7 -3 -5 0 -12 7 -18 15 -13 46 -15 46 -3
0 5 4 7 9 4 5 -3 14 8 20 24 6 20 7 30 0 30 -6 0 -8 3 -6 8 3 4 -1 13 -9 20
-8 7 -14 9 -14 5 0 -4 -5 -1 -10 7 -7 11 -10 11 -10 2z m16 -43 c10 -17 -13
-36 -27 -22 -12 12 -4 33 11 33 5 0 12 -5 16 -11z"/>
<path d="M130 590 c0 -5 5 -10 10 -10 6 0 10 5 10 10 0 6 -4 10 -10 10 -5 0
-10 -4 -10 -10z"/>
<path d="M850 642 c0 -7 -3 -11 -7 -9 -10 6 -34 -19 -26 -27 4 -3 1 -6 -5 -6
-8 0 -8 -8 -1 -30 6 -16 15 -27 20 -24 5 3 9 1 9 -3 0 -5 9 -9 20 -9 11 0 20
4 20 9 0 4 5 5 12 1 8 -5 9 -2 5 9 -4 12 -1 17 11 17 10 0 13 3 7 8 -6 4 -10
17 -9 30 1 21 -2 24 -28 26 -7 1 -16 6 -20 11 -5 6 -8 5 -8 -3z m26 -43 c10
-17 -13 -36 -27 -22 -12 12 -4 33 11 33 5 0 12 -5 16 -11z"/>
<path d="M850 590 c0 -5 5 -10 10 -10 6 0 10 5 10 10 0 6 -4 10 -10 10 -5 0
-10 -4 -10 -10z"/>
<path d="M222 549 c2 -6 8 -10 13 -10 5 0 11 4 13 10 2 6 -4 11 -13 11 -9 0
-15 -5 -13 -11z"/>
<path d="M752 549 c2 -6 8 -10 13 -10 5 0 11 4 13 10 2 6 -4 11 -13 11 -9 0
-15 -5 -13 -11z"/>
<path d="M70 516 c-10 -13 -10 -19 0 -32 12 -14 15 -14 29 0 14 15 14 17 0 32
-14 14 -17 14 -29 0z"/>
<path d="M170 515 c-10 -12 -10 -18 0 -30 7 -8 18 -15 26 -15 18 0 64 22 64
30 0 8 -46 30 -64 30 -8 0 -19 -7 -26 -15z m50 -15 c0 -5 -4 -10 -10 -10 -5 0
-10 5 -10 10 0 6 5 10 10 10 6 0 10 -4 10 -10z"/>
<path d="M763 518 c-30 -14 -29 -22 2 -36 34 -16 50 -15 65 3 10 12 10 18 0
30 -14 17 -36 18 -67 3z m37 -18 c0 -5 -4 -10 -10 -10 -5 0 -10 5 -10 10 0 6
5 10 10 10 6 0 10 -4 10 -10z"/>
<path d="M900 516 c-10 -13 -10 -19 0 -32 12 -14 15 -14 29 0 14 15 14 17 0
32 -14 14 -17 14 -29 0z"/>
<path d="M120 457 c0 -4 -5 -5 -12 -1 -8 5 -9 2 -5 -9 4 -12 1 -17 -11 -17
-15 0 -15 -2 -2 -10 12 -8 12 -10 1 -10 -10 0 -11 -3 -2 -13 6 -8 8 -17 4 -20
-6 -7 0 -9 30 -11 6 -1 15 -5 19 -11 5 -6 8 -5 8 3 0 7 3 11 8 9 4 -3 13 1 20
9 7 8 9 14 5 14 -4 0 -2 4 5 9 10 6 11 13 1 34 -7 15 -16 24 -20 21 -5 -3 -9
-1 -9 5 0 5 -9 9 -20 8 -11 -1 -20 -5 -20 -10z m36 -38 c10 -17 -13 -36 -27
-22 -12 12 -4 33 11 33 5 0 12 -5 16 -11z"/>
<path d="M130 410 c0 -5 5 -10 10 -10 6 0 10 5 10 10 0 6 -4 10 -10 10 -5 0
-10 -4 -10 -10z"/>
<path d="M226 463 c-11 -11 -6 -23 9 -23 8 0 15 4 15 9 0 13 -16 22 -24 14z"/>
<path d="M756 463 c-11 -11 -6 -23 9 -23 8 0 15 4 15 9 0 13 -16 22 -24 14z"/>
<path d="M840 458 c0 -5 -4 -7 -9 -4 -5 3 -14 -8 -20 -24 -6 -20 -7 -30 0 -30
6 0 8 -3 6 -7 -3 -5 1 -14 9 -21 8 -7 14 -9 14 -5 0 4 5 1 10 -7 7 -11 10 -11
10 -2 0 7 4 11 9 8 19 -12 37 6 37 34 0 17 -4 30 -8 30 -5 0 -7 3 -5 8 3 4 0
12 -7 17 -15 13 -46 15 -46 3z m36 -39 c10 -17 -13 -36 -27 -22 -12 12 -4 33
11 33 5 0 12 -5 16 -11z"/>
<path d="M850 410 c0 -5 5 -10 10 -10 6 0 10 5 10 10 0 6 -4 10 -10 10 -5 0
-10 -4 -10 -10z"/>
<path d="M190 351 c0 -14 38 -34 50 -26 6 3 10 2 10 -3 0 -5 -11 -14 -25 -20
-20 -9 -25 -9 -25 2 0 19 -43 36 -63 24 -21 -11 -22 -44 -3 -64 20 -19 29 -18
72 11 37 25 53 27 39 5 -4 -6 -31 -27 -61 -46 -30 -19 -54 -41 -54 -49 0 -22
30 -7 73 38 21 21 41 36 44 33 3 -3 -7 -19 -23 -35 -16 -16 -38 -44 -48 -62
-17 -28 -17 -32 -3 -26 11 4 17 1 17 -8 0 -8 7 -15 15 -15 8 0 15 -5 15 -11 0
-8 4 -8 13 0 10 8 17 7 25 -1 9 -9 12 -9 12 1 0 7 6 11 15 7 12 -4 13 3 9 42
-4 26 -13 58 -21 71 -14 23 -14 78 0 111 6 11 0 15 -20 16 -16 0 -36 4 -45 8
-11 5 -18 4 -18 -3z m-10 -50 c6 -2 -23 -21 -31 -21 -3 0 -6 6 -6 14 0 7 7 12
16 11 9 -2 18 -4 21 -4z m90 -123 c0 -18 -16 -40 -26 -38 -25 5 -43 22 -38 35
7 18 64 20 64 3z"/>
<path d="M291 326 c-17 -20 -3 -46 25 -44 26 3 32 26 12 46 -15 15 -23 15 -37
-2z"/>
<path d="M673 332 c-20 -13 -11 -48 13 -50 26 -2 39 24 23 44 -13 16 -19 17
-36 6z"/>
<path d="M426 194 c-17 -16 -12 -40 9 -48 19 -7 46 20 39 39 -8 21 -32 26 -48
9z"/>
<path d="M535 194 c-24 -25 -13 -53 19 -48 22 3 41 27 26 32 -6 2 -8 7 -5 12
10 15 -25 19 -40 4z"/>
<path d="M490 140 c0 -11 -5 -19 -11 -17 -6 1 -14 -4 -16 -10 -3 -7 2 -13 11
-13 9 0 16 -7 16 -15 0 -8 5 -15 10 -15 6 0 10 7 10 15 0 8 7 15 16 15 9 0 14
6 11 13 -2 6 -10 11 -16 10 -6 -2 -11 6 -11 17 0 11 -4 20 -10 20 -5 0 -10 -9
-10 -20z"/>
</g>
</svg>
